# xmcd
#
# Track frame offsets:
#	150
#	33130
#	55206
#	82948
#	108446
#	130653
#	161010
#	188857
#	211203
#	236770
#	263798
#	290781
#	317372
#
# Disc length: 4560 seconds
#
# Revision: 2
# Processed by: cddbd v1.5.2PL0 Copyright (c) Steve Scherf et al.
# Submitted via: audiograbber 1.83.01
#
DISCID=ae11ce0d
DTITLE=Various Artist - Beach House 2008 - CD1
DYEAR=2008
DGENRE=House
TTITLE0=Reel People ft. Darien - Alibi (Rasmus Faber Remix)
TTITLE1=Hot Hands pres. Karyna - Quiero Tus Caricias (DJ Meme Club Mix)
TTITLE2=Aaron Ross ft. Gia Mellish - Love Potion
TTITLE3=Pulse - The Lover That You Are (Marlon D and George Mena Club Mix)
TTITLE4=Samantha James - Breathe You In (KJ's Soulful Mix)
TTITLE5=Wez Clarke and Maxine Hardcastle ft. The Lovely Laura On Sax - Another Ch
TTITLE5=ance (Wez's Beach House Mi
TTITLE6=Panevino - Freeze The Frame
TTITLE7=Tiger Stripes ft. Hanna Haïs - Consecration (Tiger Stripes Dub)
TTITLE8=U-Ness ft. Robina - A Tu Lado
TTITLE9=Studio Apartment ft. Ron Caroll - I'm In Love (Rasmus Faber Epic Remix)
TTITLE10=Kings Of Tomorrow ft. Rae - Can't Stop (Jose Nunez Throwback Mix)
TTITLE11=Jody Wisternoff - Starstrings (Vocal Version)
TTITLE12=Limerock ft. The Lovely Laura - Saxopolis (Wez Clarke's So Saxy Dub)
EXTD=
EXTT0=
EXTT1=
EXTT2=
EXTT3=
EXTT4=
EXTT5=
EXTT6=
EXTT7=
EXTT8=
EXTT9=
EXTT10=
EXTT11=
EXTT12=
PLAYORDER=
